<?xml version="1.0" encoding="UTF-8" standalone="no"?>
<!DOCTYPE svg PUBLIC "-//W3C//DTD SVG 1.1//EN" "http://www.w3.org/Graphics/SVG/1.1/DTD/svg11.dtd">
<svg xmlns="http://www.w3.org/2000/svg" version="1.1" viewBox="0 0 1000 1000"><g transform="translate(114.5,400) scale(0.75)"><path class="tree-link" d="M190,-90.50000000000001C85.5,-90.50000000000001 85.5,11.5 85.5,11.5" style="stroke-opacity: 1;"></path><path class="tree-link" d="M380,-90.50000000000001C275.5,-90.50000000000001 275.5,-90.50000000000001 275.5,-90.50000000000001" style="stroke-opacity: 1;"></path><path class="tree-link" d="M570,-180.5C465.5,-180.5 465.5,-90.50000000000001 465.5,-90.50000000000001" style="stroke-opacity: 1;"></path><path class="tree-link" d="M570,-120.5C465.5,-120.5 465.5,-90.50000000000001 465.5,-90.50000000000001" style="stroke-opacity: 1;"></path><path class="tree-link" d="M570,-60.500000000000014C465.5,-60.500000000000014 465.5,-90.50000000000001 465.5,-90.50000000000001" style="stroke-opacity: 1;"></path><path class="tree-link" d="M760,-60.500000000000014C655.5,-60.500000000000014 655.5,-60.500000000000014 655.5,-60.500000000000014" style="stroke-opacity: 1;"></path><path class="tree-link" d="M950,-60.500000000000014C845.5,-60.500000000000014 845.5,-60.500000000000014 845.5,-60.500000000000014" style="stroke-opacity: 1;"></path><path class="tree-link" d="M1140,-60.500000000000014C1035.5,-60.500000000000014 1035.5,-60.500000000000014 1035.5,-60.500000000000014" style="stroke-opacity: 1;"></path><path class="tree-link" d="M1330,-60.500000000000014C1225.5,-60.500000000000014 1225.5,-60.500000000000014 1225.5,-60.500000000000014" style="stroke-opacity: 1;"></path><path class="tree-link" d="M570,-0.5000000000000107C465.5,-0.5000000000000107 465.5,-90.50000000000001 465.5,-90.50000000000001" style="stroke-opacity: 1;"></path><path class="tree-link" d="M190,113.50000000000001C85.5,113.50000000000001 85.5,11.5 85.5,11.5" style="stroke-opacity: 1;"></path><path class="tree-link" d="M380,113.50000000000001C275.5,113.50000000000001 275.5,113.50000000000001 275.5,113.50000000000001" style="stroke-opacity: 1;"></path><path class="tree-link" d="M570,83.50000000000001C465.5,83.50000000000001 465.5,113.50000000000001 465.5,113.50000000000001" style="stroke-opacity: 1;"></path><path class="tree-link" d="M570,143.5C465.5,143.5 465.5,113.50000000000001 465.5,113.50000000000001" style="stroke-opacity: 1;"></path><path class="tree-link" d="M760,143.5C655.5,143.5 655.5,143.5 655.5,143.5" style="stroke-opacity: 1;"></path><path class="tree-link" d="M950,143.5C845.5,143.5 845.5,143.5 845.5,143.5" style="stroke-opacity: 1;"></path><g class="tree-node tree-root" transform="translate(0, 0)" style="opacity: 1;"><rect width="171" height="23" rx="0" ry="0"></rect><text class="node-text" y="11.5" dy=".35em" x="55.72589874267578">program</text><text class="token-range" x="0" y="11.5" dx="0" dy="-1.8em">⨳ --</text><text class="token-value" x="0" y="11.5" dy="0.25em" dx="191"></text></g><g class="tree-node" transform="translate(190, -102)" style="opacity: 1;"><rect width="171" height="23" rx="0" ry="0"></rect><text class="node-text" y="11.5" dy=".35em" x="70.39949321746826">stmt</text><text class="token-range" x="0" y="11.5" dx="0" dy="-1.8em">⨳ 0-3</text><text class="token-value" x="0" y="11.5" dy="0.25em" dx="191"></text></g><g class="tree-node" transform="translate(190, 102)" style="opacity: 1;"><rect width="171" height="23" rx="0" ry="0"></rect><text class="node-text" y="11.5" dy=".35em" x="70.39949321746826">stmt</text><text class="token-range" x="0" y="11.5" dx="0" dy="-1.8em">⨳ --</text><text class="token-value" x="0" y="11.5" dy="0.25em" dx="191"></text></g><g class="tree-node" transform="translate(380, -102)" style="opacity: 1;"><rect width="171" height="23" rx="0" ry="0"></rect><text class="node-text" y="11.5" dy=".35em" x="72.60724067687988">asg</text><text class="token-range" x="0" y="11.5" dx="0" dy="-1.8em">⨳ 0-3</text><text class="token-value" x="0" y="11.5" dy="0.25em" dx="191"></text></g><g class="tree-node" transform="translate(380, 102)" style="opacity: 1;"><rect width="171" height="23" rx="0" ry="0"></rect><text class="node-text" y="11.5" dy=".35em" x="50.84689712524414">whileStmt</text><text class="token-range" x="0" y="11.5" dx="0" dy="-1.8em">⨳ --</text><text class="token-value" x="0" y="11.5" dy="0.25em" dx="191"></text></g><g class="tree-node tree-leaf" transform="translate(570, -192)" style="opacity: 1;"><rect width="171" height="23" rx="10" ry="10"></rect><text class="node-text" y="11.5" dy=".35em" x="77.49843883514404">ID</text><text class="token-range" x="0" y="11.5" dx="0" dy="-1.8em">⨳ 0</text><text class="token-value" x="0" y="11.5" dy="0.25em" dx="191">count</text></g><g class="tree-node tree-leaf" transform="translate(570, -132)" style="opacity: 1;"><rect width="171" height="23" rx="10" ry="10"></rect><text class="node-text" y="11.5" dy=".35em" x="58.397151947021484">EQUAL</text><text class="token-range" x="0" y="11.5" dx="0" dy="-1.8em">⨳ 1</text><text class="token-value" x="0" y="11.5" dy="0.25em" dx="191">=</text></g><g class="tree-node" transform="translate(570, -72)" style="opacity: 1;"><rect width="171" height="23" rx="0" ry="0"></rect><text class="node-text" y="11.5" dy=".35em" x="72.60724067687988">exp</text><text class="token-range" x="0" y="11.5" dx="0" dy="-1.8em">⨳ 2</text><text class="token-value" x="0" y="11.5" dy="0.25em" dx="191"></text></g><g class="tree-node tree-leaf" transform="translate(570, -12)" style="opacity: 1;"><rect width="171" height="23" rx="10" ry="10"></rect><text class="node-text" y="11.5" dy=".35em" x="75.27849388122559">NL</text><text class="token-range" x="0" y="11.5" dx="0" dy="-1.8em">⨳ 3</text><text class="token-value" x="0" y="11.5" dy="0.25em" dx="191">
</text></g><g class="tree-node tree-leaf" transform="translate(570, 72)" style="opacity: 1;"><rect width="171" height="23" rx="10" ry="10"></rect><text class="node-text" y="11.5" dy=".35em" x="60.17798614501953">WHILE</text><text class="token-range" x="0" y="11.5" dx="0" dy="-1.8em">⨳ 4</text><text class="token-value" x="0" y="11.5" dy="0.25em" dx="191">while</text></g><g class="tree-node" transform="translate(570, 132)" style="opacity: 1;"><rect width="171" height="23" rx="0" ry="0"></rect><text class="node-text" y="11.5" dy=".35em" x="72.60724067687988">exp</text><text class="token-range" x="0" y="11.5" dx="0" dy="-1.8em">⨳ --</text><text class="token-value" x="0" y="11.5" dy="0.25em" dx="191"></text></g><g class="tree-node" transform="translate(760, -72)" style="opacity: 1;"><rect width="171" height="23" rx="0" ry="0"></rect><text class="node-text" y="11.5" dy=".35em" x="58.38495445251465">addExp</text><text class="token-range" x="0" y="11.5" dx="0" dy="-1.8em">⨳ 2</text><text class="token-value" x="0" y="11.5" dy="0.25em" dx="191"></text></g><g class="tree-node" transform="translate(760, 132)" style="opacity: 1;"><rect width="171" height="23" rx="0" ry="0"></rect><text class="node-text" y="11.5" dy=".35em" x="58.38495445251465">addExp</text><text class="token-range" x="0" y="11.5" dx="0" dy="-1.8em">⨳ --</text><text class="token-value" x="0" y="11.5" dy="0.25em" dx="191"></text></g><g class="tree-node" transform="translate(950, -72)" style="opacity: 1;"><rect width="171" height="23" rx="0" ry="0"></rect><text class="node-text" y="11.5" dy=".35em" x="58.83626174926758">mulExp</text><text class="token-range" x="0" y="11.5" dx="0" dy="-1.8em">⨳ 2</text><text class="token-value" x="0" y="11.5" dy="0.25em" dx="191"></text></g><g class="tree-node" transform="translate(950, 132)" style="opacity: 1;"><rect width="171" height="23" rx="0" ry="0"></rect><text class="node-text" y="11.5" dy=".35em" x="58.83626174926758">mulExp</text><text class="token-range" x="0" y="11.5" dx="0" dy="-1.8em">⨳ --</text><text class="token-value" x="0" y="11.5" dy="0.25em" dx="191"></text></g><g class="tree-node" transform="translate(1140, -72)" style="opacity: 1;"><rect width="171" height="23" rx="0" ry="0"></rect><text class="node-text" y="11.5" dy=".35em" x="67.72823905944824">atom</text><text class="token-range" x="0" y="11.5" dx="0" dy="-1.8em">⨳ 2</text><text class="token-value" x="0" y="11.5" dy="0.25em" dx="191"></text></g><g class="tree-node tree-leaf" transform="translate(1330, -72)" style="opacity: 1;"><rect width="171" height="23" rx="10" ry="10"></rect><text class="node-text" y="11.5" dy=".35em" x="50.85909652709961">NUMBER</text><text class="token-range" x="0" y="11.5" dx="0" dy="-1.8em">⨳ 2</text><text class="token-value" x="0" y="11.5" dy="0.25em" dx="191">1</text></g></g><defs><style type="text/css"><![CDATA[
svg.railroad-diagram path { stroke-width: 2; stroke: darkgray; fill: rgba(0, 0, 0, 0);}/* All text except comments. */svg.railroad-diagram text { font: bold 12px Hack, "Source Code Pro", monospace; text-anchor: middle; fill: #404040;}/* Comment text */svg.railroad-diagram text.comment { font: italic 10px Hack, "Source Code Pro", monospace; fill: #404040;}/* The terminal boxes. */svg.railroad-diagram g.terminal rect { stroke-width: 2; stroke: #404040; fill: rgba(200, 200, 200, 1);}svg.railroad-diagram g.non-terminal rect { /* The non-terminal boxes. */ stroke-width: 2; stroke: #404040; fill: rgba(255, 255, 255, 1);}/* Multiple choice text, not working atm. */svg.railroad-diagram text.diagram-text { font-size: 12px Hack, "Source Code Pro", monospace; fill: red;}/* Multiple choice text, not working atm. */svg.railroad-diagram path.diagram-text { stroke-width: 1; stroke: red; fill: red; cursor: help;}
 ]]>
</style></defs></svg>